# xmcd
#
# Track frame offsets:
#	150
#	6534
#	17855
#	34874
#	52297
#	61019
#	84581
#	98480
#	126257
#	138927
#	170750
#	223013
#	243496
#	252897
#	264958
#	276173
#	288581
#	293367
#	307601
#	320989
#	328261
#	334336
#
# Disc length: 4749 seconds
#
# Revision: 0
# Processed by: cddbd v1.5.2PL0 Copyright (c) Steve Scherf et al.
# Submitted via: audiograbber 1.83.01
#
DISCID=4f128b16
DTITLE=Chuck Berry - Rock And Roll Music - Any Old Way You Choose It [CD 16) - 
DTITLE=On Stage 1972 plus
DYEAR=2014
DGENRE=Rock and Roll
TTITLE0=Lanchester Arts Festival Introduction [live - Lanchester Arts Festival,
TTITLE0=Coventry February 3, 1972] 
TTITLE1=Roll Over Beethoven [live - Lanchester Arts Festival, Coventry February
TTITLE1=3, 1972] [2014]
TTITLE2=Nadine [live - Lanchester Arts Festival, Coventry February 3, 1972] [20
TTITLE2=14]
TTITLE3=Sweet Little Sixteen [live - Lanchester Arts Festival, Coventry Februar
TTITLE3=y 3, 1972] [2010]
TTITLE4=Instrumental (testing) [live - Lanchester Arts Festival, Coventry Febru
TTITLE4=ary 3, 1972] [2014]
TTITLE5=Roll 'Em Pete [live - Lanchester Arts Festival, Coventry February 3, 19
TTITLE5=72] [2010]
TTITLE6=Around And Around [live - Lanchester Arts Festival, Coventry February 3
TTITLE6=, 1972] [2010]
TTITLE7=It Hurts Me Too [live - Lanchester Arts Festival, Coventry February 3, 
TTITLE7=1972] [2010]
TTITLE8=Promised Land [live - Lanchester Arts Festival, Coventry February 3, 19
TTITLE8=72] [2010]
TTITLE9=Reelin' And Rockin' [live - Lanchester Arts Festival, Coventry February
TTITLE9=3, 1972] [1972]
TTITLE10=My Ding-A-Ling [live - Lanchester Arts Festival, Coventry February 3, 
TTITLE10=1972] [1972]
TTITLE11=Johnny B. Goode [live - Lanchester Arts Festival, Coventry February 3,
TTITLE11=1972] [1972]
TTITLE12=South Of The Border [live - BBC Television Theatre, London March 29, 1
TTITLE12=972] [mono 1972]
TTITLE13=School Days [live - BBC Radio, May 11, 1964 'Saturday Club' (BBC Light
TTITLE13=Programme)] [mono 2000]
TTITLE14=Memphis Tennessee [live - BBC Radio, May 11, 1964 'Saturday Club' (BBC
TTITLE14=Light Programme)] [mono 1991]
TTITLE15=Sweet Little Sixteen [live - BBC Radio, May 11, 1964 'Saturday Club' (
TTITLE15=BBC Light Programme)] [mono 1991]
TTITLE16=Interview [live - BBC Radio, May 11, 1964 'Saturday Club' (BBC Light P
TTITLE16=rogramme)] [mono 1991]
TTITLE17=Nadine [live - BBC Radio, May 11, 1964 'Saturday Club' (BBC Light Prog
TTITLE17=ramme)] [mono 1991]
TTITLE18=Johnny B. Goode [live - BBC Radio, May 11, 1964 'Saturday Club' (BBC L
TTITLE18=ight Programme)] [mono 1991]
TTITLE19=Interview [mono 1977]
TTITLE20=Dr. Pepper Commercial [1977]
TTITLE21=Rockin' And Rollin' - Roll Over Beethoven [live - Wiltern Theatre, Los
TTITLE21=Angeles (Late 1977)] [1978]
EXTD=
EXTT0=
EXTT1=
EXTT2=
EXTT3=
EXTT4=
EXTT5=
EXTT6=
EXTT7=
EXTT8=
EXTT9=
EXTT10=
EXTT11=
EXTT12=
EXTT13=
EXTT14=
EXTT15=
EXTT16=
EXTT17=
EXTT18=
EXTT19=
EXTT20=
EXTT21=
PLAYORDER=
